<?xml version="1.0" encoding="utf-8"?>
<!-- Generator: Adobe Illustrator 18.0.0, SVG Export Plug-In . SVG Version: 6.00 Build 0)  -->
<!DOCTYPE svg PUBLIC "-//W3C//DTD SVG 1.1//EN" "http://www.w3.org/Graphics/SVG/1.1/DTD/svg11.dtd">
<svg version="1.1" id="Layer_1" xmlns="http://www.w3.org/2000/svg" xmlns:xlink="http://www.w3.org/1999/xlink" x="0px" y="0px"
	 viewBox="0 0 612 792" enable-background="new 0 0 612 792" xml:space="preserve">
<circle fill="none" stroke="#000000" stroke-miterlimit="10" cx="131.6" cy="131.3" r="4.5"/>
<circle fill="none" stroke="#000000" stroke-miterlimit="10" cx="131.6" cy="131.3" r="104.4"/>
<circle fill="none" stroke="#000000" stroke-miterlimit="10" cx="349.8" cy="133.2" r="104.4"/>
<circle fill="none" stroke="#000000" stroke-miterlimit="10" cx="365.9" cy="275.8" r="18"/>
<rect x="22.4" y="342.7" fill="none" stroke="#000000" stroke-miterlimit="10" width="36" height="180"/>
<text transform="matrix(1 0 0 1 31.4224 336.9972)" font-family="'MyriadPro-Regular'" font-size="12">Support 1a/b</text>
<circle fill="none" stroke="#000000" stroke-miterlimit="10" cx="40.4" cy="366" r="9"/>
<circle fill="none" stroke="#000000" stroke-miterlimit="10" cx="40.4" cy="393" r="9"/>
<rect x="71.8" y="342.7" fill="none" stroke="#000000" stroke-miterlimit="10" width="36" height="180"/>
<circle fill="none" stroke="#000000" stroke-miterlimit="10" cx="89.8" cy="366" r="9"/>
<circle fill="none" stroke="#000000" stroke-miterlimit="10" cx="89.8" cy="393" r="9"/>
<rect x="31.4" y="522.7" fill="none" stroke="#000000" stroke-miterlimit="10" width="18" height="18"/>
<rect x="80.8" y="522.7" fill="none" stroke="#000000" stroke-miterlimit="10" width="18" height="18"/>
<rect x="123.7" y="342.7" fill="none" stroke="#000000" stroke-miterlimit="10" width="108" height="180"/>
<rect x="141.7" y="522.7" fill="none" stroke="#000000" stroke-miterlimit="10" width="18" height="18"/>
<rect x="195.7" y="522.7" fill="none" stroke="#000000" stroke-miterlimit="10" width="18" height="18"/>
<circle fill="none" stroke="#000000" stroke-miterlimit="10" cx="177.7" cy="379.6" r="27"/>
<text transform="matrix(1 0 0 1 150.7138 336.997)" font-family="'MyriadPro-Regular'" font-size="12">Support 2</text>
<circle fill="none" stroke="#000000" stroke-miterlimit="10" cx="413.9" cy="275.8" r="18"/>
<circle fill="none" stroke="#000000" stroke-miterlimit="10" cx="323.9" cy="275.8" r="18"/>
<circle fill="none" stroke="#000000" stroke-miterlimit="10" cx="279.5" cy="275.8" r="18"/>
<circle fill="none" stroke="#000000" stroke-miterlimit="10" cx="100.4" cy="268.9" r="7.2"/>
<circle fill="none" stroke="#000000" stroke-miterlimit="10" cx="71.7" cy="268.3" r="5.4"/>
<circle fill="none" stroke="#000000" stroke-miterlimit="10" cx="49.2" cy="268.3" r="4.5"/>
<circle fill="none" stroke="#000000" stroke-miterlimit="10" cx="24" cy="268.9" r="3.6"/>
<circle fill="none" stroke="#000000" stroke-miterlimit="10" cx="209.2" cy="267.5" r="18"/>
<text transform="matrix(1 0 0 1 16.3318 24.8312)" font-family="'MyriadPro-Regular'" font-size="12">Delete Text Before Cut</text>
<text transform="matrix(1 0 0 1 87.8253 80.4583)" font-family="'MyriadPro-Regular'" font-size="12">Subassembly a1</text>
<text transform="matrix(1 0 0 1 306.0002 90.0176)" font-family="'MyriadPro-Regular'" font-size="12">Subassembly b1</text>
<text transform="matrix(1 0 0 1 31.8168 249.5958)" font-family="'MyriadPro-Regular'" font-size="12">Screw Hole Tests</text>
<text transform="matrix(1 0 0 1 253.1913 244.9011)" font-family="'MyriadPro-Regular'" font-size="12">Axle Pieces</text>
<text transform="matrix(1 0 0 1 11.1656 307.8244)" font-family="'MyriadPro-Regular'" font-size="12">0.1in</text>
<text transform="matrix(1 0 0 1 85.9858 296.4149)" font-family="'MyriadPro-Regular'" font-size="12">0.2in</text>
<text transform="matrix(1 0 0 1 113.0762 308.4674)" font-family="'MyriadPro-Regular'" font-size="12">0.25in</text>
<text transform="matrix(1 0 0 1 147.6598 300.554)" font-family="'MyriadPro-Regular'" font-size="12">0.3in</text>
<text transform="matrix(1 0 0 1 196.1884 308.4675)" font-family="'MyriadPro-Regular'" font-size="12">0.5in</text>
<text transform="matrix(1 0 0 1 60.9582 309.2967)" font-family="'MyriadPro-Regular'" font-size="12">0.15in</text>
<text transform="matrix(1 0 0 1 31.5142 296.4147)" font-family="'MyriadPro-Regular'" font-size="12">0.125in</text>
<circle fill="none" stroke="#000000" stroke-miterlimit="10" cx="130" cy="268.3" r="9"/>
<circle fill="none" stroke="#000000" stroke-miterlimit="10" cx="162.4" cy="268.9" r="10.8"/>
<rect x="260.8" y="333.9" fill="none" stroke="#000000" stroke-miterlimit="10" width="18" height="18"/>
<rect x="239.6" y="335.7" fill="none" stroke="#000000" stroke-miterlimit="10" width="14.4" height="14.4"/>
<rect x="286" y="332.1" fill="none" stroke="#000000" stroke-miterlimit="10" width="21.6" height="21.6"/>
<rect x="314" y="330.3" fill="none" stroke="#000000" stroke-miterlimit="10" width="25.2" height="25.2"/>
<rect x="412.1" y="469.3" fill="none" stroke="#000000" stroke-miterlimit="10" width="18" height="18"/>
<rect x="413.9" y="494.1" fill="none" stroke="#000000" stroke-miterlimit="10" width="14.4" height="14.4"/>
<rect x="410.3" y="440.5" fill="none" stroke="#000000" stroke-miterlimit="10" width="21.6" height="21.6"/>
<rect x="408.5" y="408.9" fill="none" stroke="#000000" stroke-miterlimit="10" width="25.2" height="25.2"/>
<rect x="361.1" y="469.3" fill="none" stroke="#000000" stroke-miterlimit="10" width="18" height="18"/>
<rect x="362.9" y="494.1" fill="none" stroke="#000000" stroke-miterlimit="10" width="14.4" height="14.4"/>
<rect x="359.3" y="440.5" fill="none" stroke="#000000" stroke-miterlimit="10" width="21.6" height="21.6"/>
<rect x="357.5" y="408.9" fill="none" stroke="#000000" stroke-miterlimit="10" width="25.2" height="25.2"/>
<rect x="261.4" y="383.3" fill="none" stroke="#000000" stroke-miterlimit="10" width="18" height="9"/>
<rect x="255.6" y="431.1" fill="none" stroke="#000000" stroke-miterlimit="10" width="18" height="9"/>
<rect x="309.6" y="431.1" fill="none" stroke="#000000" stroke-miterlimit="10" width="18" height="9"/>
<rect x="286.6" y="382.2" fill="none" stroke="#000000" stroke-miterlimit="10" width="21.6" height="10.8"/>
<rect x="307.8" y="449.9" fill="none" stroke="#000000" stroke-miterlimit="10" width="21.6" height="10.8"/>
<rect x="253.8" y="449.9" fill="none" stroke="#000000" stroke-miterlimit="10" width="21.6" height="10.8"/>
<rect x="314.6" y="381.5" fill="none" stroke="#000000" stroke-miterlimit="10" width="25.2" height="12.6"/>
<rect x="306" y="473" fill="none" stroke="#000000" stroke-miterlimit="10" width="25.2" height="12.6"/>
<rect x="252" y="473" fill="none" stroke="#000000" stroke-miterlimit="10" width="25.2" height="12.6"/>
<rect x="240.2" y="384" fill="none" stroke="#000000" stroke-miterlimit="10" width="14.4" height="7.2"/>
<rect x="257.4" y="412.5" fill="none" stroke="#000000" stroke-miterlimit="10" width="14.4" height="7.2"/>
<rect x="311.4" y="412.5" fill="none" stroke="#000000" stroke-miterlimit="10" width="14.4" height="7.2"/>
<text transform="matrix(1 0 0 1 219.0133 323.7897)" font-family="'MyriadPro-Regular'" font-size="12">Support Joint Test</text>
<rect x="353.9" y="317.9" fill="none" stroke="#000000" stroke-miterlimit="10" width="72" height="72"/>
<text transform="matrix(1 0 0 1 286.5913 307.8242)" font-family="'MyriadPro-Regular'" font-size="12">Ensure Box is 1in. x 1in. for scale</text>
</svg>
